<?xml version="1.0" standalone="no"?>
<!DOCTYPE svg PUBLIC "-//W3C//DTD SVG 20010904//EN"
 "http://www.w3.org/TR/2001/REC-SVG-20010904/DTD/svg10.dtd">
<svg version="1.0" xmlns="http://www.w3.org/2000/svg"
 width="1254.000000pt" height="1254.000000pt" viewBox="0 0 1254.000000 1254.000000"
 preserveAspectRatio="xMidYMid meet">

<g transform="translate(0.000000,1254.000000) scale(0.100000,-0.100000)"
fill="#000000" stroke="none">
<path d="M6140 11300 c-83 -11 -216 -53 -300 -95 -214 -107 -384 -317 -449
-554 -64 -229 -42 -449 64 -660 108 -215 297 -379 523 -452 l87 -27 -2 -1609
c-2 -884 -6 -1825 -9 -2091 l-6 -483 -87 83 c-234 225 -515 366 -846 424 -61
11 -195 18 -415 23 -303 7 -329 9 -379 30 -120 49 -202 121 -260 230 -43 82
-61 160 -61 272 l0 97 72 22 c298 90 523 343 588 660 52 249 -7 508 -161 713
-102 136 -270 250 -444 303 -81 25 -105 28 -245 28 -179 1 -242 -12 -380 -76
-299 -138 -500 -451 -500 -777 0 -170 26 -274 108 -436 38 -74 64 -108 147
-191 116 -118 211 -178 346 -221 l87 -28 4 -160 c4 -141 8 -170 32 -245 100
-303 353 -532 658 -594 57 -12 139 -16 315 -16 403 -1 595 -42 840 -182 275
-158 484 -402 565 -658 23 -74 23 -79 23 -573 l0 -498 -73 -25 c-346 -116
-593 -436 -609 -790 -13 -267 67 -488 244 -673 424 -446 1179 -339 1452 206
90 180 119 352 91 548 -47 324 -289 610 -605 711 l-70 22 -3 483 c-2 455 -1
489 18 564 81 326 424 663 805 790 170 57 237 66 580 74 248 7 333 12 379 25
213 60 407 197 514 365 93 146 131 276 140 484 l7 148 73 25 c139 47 228 100
336 203 429 411 322 1141 -205 1406 -154 77 -258 99 -437 93 -118 -5 -150 -10
-232 -36 -171 -56 -327 -164 -427 -297 -56 -73 -136 -237 -158 -323 -36 -142
-28 -342 21 -489 57 -176 187 -348 340 -454 62 -42 179 -97 242 -111 l52 -13
0 -120 c0 -100 -4 -131 -24 -187 -47 -132 -133 -225 -272 -290 l-69 -33 -330
-6 c-349 -7 -392 -12 -575 -60 -262 -69 -502 -205 -693 -393 -44 -43 -81 -75
-83 -73 -3 2 -2 945 2 2095 l7 2090 46 13 c75 20 221 94 294 150 161 122 288
327 332 535 19 89 19 283 0 372 -57 274 -230 499 -479 622 -55 27 -139 59
-186 70 -96 24 -262 33 -360 20z m253 -405 c135 -35 268 -137 329 -251 106
-197 66 -448 -96 -607 -253 -246 -664 -172 -818 149 -40 83 -43 95 -46 190 -5
122 11 188 69 286 112 190 349 289 562 233z m2435 -3070 c229 -54 382 -241
382 -469 0 -252 -174 -455 -420 -488 -100 -13 -189 2 -287 48 -111 53 -223
196 -252 324 -68 294 168 591 474 599 22 0 68 -6 103 -14z m-4825 -38 c217
-102 330 -337 272 -560 -56 -214 -251 -367 -469 -367 -135 0 -247 44 -338 134
-100 98 -149 212 -150 343 -1 220 125 399 330 470 57 20 83 23 172 21 98 -3
111 -6 183 -41z m2399 -4616 c219 -60 378 -265 378 -486 0 -135 -56 -260 -160
-359 -78 -73 -147 -110 -245 -131 -88 -18 -122 -18 -210 0 -158 33 -282 131
-356 279 -35 72 -42 95 -46 167 -10 163 40 292 156 402 139 131 310 176 483
128z"/>
<path d="M3760 10682 c-119 -61 -367 -227 -527 -354 -250 -198 -568 -506 -757
-733 -461 -555 -796 -1205 -991 -1923 -306 -1130 -181 -2337 354 -3419 247
-499 524 -885 921 -1283 318 -318 629 -556 1045 -798 340 -197 818 -402 939
-402 108 0 186 72 194 180 7 102 -44 179 -145 216 -174 63 -300 117 -458 193
-684 331 -1255 798 -1708 1398 -617 817 -940 1861 -889 2875 13 275 31 422 78
655 135 673 438 1346 843 1873 242 315 581 653 886 882 106 80 299 210 403
272 79 47 114 97 120 170 14 175 -149 279 -308 198z"/>
<path d="M8581 10688 c-28 -14 -54 -37 -72 -65 -73 -116 -35 -239 99 -314 382
-215 858 -624 1179 -1014 538 -654 883 -1464 998 -2345 109 -843 -63 -1802
-464 -2575 -141 -270 -305 -527 -475 -738 -526 -659 -1220 -1157 -2011 -1444
-160 -58 -192 -79 -225 -148 -65 -133 31 -285 180 -285 101 0 513 166 815 328
704 379 1284 885 1726 1509 231 325 470 790 610 1188 178 509 265 991 276
1545 6 310 -4 507 -43 783 -134 959 -524 1816 -1172 2575 -117 137 -385 401
-530 522 -215 180 -489 372 -649 456 -100 53 -168 59 -242 22z"/>
</g>
</svg>
