<?xml version="1.0" standalone="no"?>
<!DOCTYPE svg PUBLIC "-//W3C//DTD SVG 20010904//EN"
 "http://www.w3.org/TR/2001/REC-SVG-20010904/DTD/svg10.dtd">
<svg version="1.0" xmlns="http://www.w3.org/2000/svg"
 width="500.000000pt" height="500.000000pt" viewBox="0 0 500.000000 500.000000"
 preserveAspectRatio="xMidYMid meet">

<g transform="translate(0.000000,500.000000) scale(0.100000,-0.100000)"
fill="#000000" stroke="none">
<path d="M3402 3741 c-11 -6 -10 -10 4 -15 9 -3 19 -4 22 -1 3 3 -1 5 -9 5
-11 0 -11 2 1 10 8 5 11 10 5 10 -5 0 -16 -4 -23 -9z"/>
<path d="M3463 3705 c0 -8 4 -12 9 -9 5 3 6 10 3 15 -9 13 -12 11 -12 -6z"/>
<path d="M3501 3707 c-8 -10 -7 -14 2 -14 8 0 14 6 14 14 0 7 -1 13 -2 13 -2
0 -8 -6 -14 -13z"/>
<path d="M3580 3675 c-7 -8 -10 -22 -6 -30 8 -22 -27 -19 -47 3 -10 10 -15 21
-12 24 3 2 -2 5 -10 5 -11 0 -8 -8 12 -29 15 -15 35 -28 45 -28 11 0 16 -5 12
-11 -7 -12 55 -81 67 -73 5 3 6 -1 3 -9 -3 -9 6 -24 22 -36 15 -11 23 -21 19
-21 -4 0 4 -15 19 -34 14 -19 26 -38 26 -41 0 -4 8 -19 18 -33 24 -35 86 -183
105 -252 104 -371 35 -784 -218 -1290 -34 -69 -76 -149 -94 -178 -17 -29 -31
-55 -31 -58 0 -3 -9 -19 -21 -36 -12 -16 -19 -31 -16 -34 6 -7 157 97 210 144
276 247 445 553 508 922 15 92 17 367 2 435 -6 28 -17 77 -24 110 -6 33 -20
86 -30 117 -26 84 -110 278 -120 278 -5 0 -9 6 -9 14 0 8 -13 28 -29 45 -16
17 -24 31 -18 31 6 0 7 3 4 6 -4 4 -13 2 -20 -4 -14 -12 -27 -7 -27 10 0 5 4
7 9 3 5 -3 12 -2 15 3 6 9 -10 13 -64 14 -19 1 -29 3 -22 5 29 10 8 22 -30 17
-24 -3 -72 -10 -108 -14 -35 -5 -67 -6 -70 -1 -3 4 -14 11 -25 15 -16 6 -17 9
-5 16 12 8 11 10 -6 10 -12 0 -27 -7 -34 -15z m18 -59 c-1 -14 -5 -23 -9 -20
-4 2 -6 12 -4 22 5 23 4 22 10 22 3 0 4 -11 3 -24z m42 -6 c0 -5 -2 -10 -4 -10
-3 0 -8 5 -11 10 -3 6 -1 10 4 10 6 0 11 -4 11 -10z"/>
<path d="M3880 3680 c0 -5 5 -10 11 -10 5 0 7 5 4 10 -3 6 -8 10 -11 10 -2 0
-4 -4 -4 -10z"/>
<path d="M3917 3659 c7 -7 15 -10 18 -7 3 3 -2 9 -12 12 -14 6 -15 5 -6 -5z"/>
<path d="M2705 3650 c-331 -47 -621 -307 -728 -655 -37 -120 -51 -232 -44
-359 29 -516 332 -1123 812 -1628 36 -37 67 -68 69 -68 11 0 131 134 226 253
264 331 459 681 577 1037 13 41 36 129 51 195 23 104 26 143 27 290 0 147 -3
181 -23 250 -79 281 -229 474 -465 599 -139 74 -343 109 -502 86z m327 -292
c171 -64 296 -178 377 -346 45 -92 56 -147 56 -277 -1 -133 -18 -205 -78 -320
-68 -130 -237 -265 -392 -311 -91 -28 -258 -25 -354 6 -188 60 -343 213 -416
410 -26 68 -28 87 -29 210 0 125 2 141 28 213 81 220 242 371 459 432 83 24
264 14 349 -17z"/>
<path d="M2710 3166 c-129 -38 -220 -113 -278 -229 -90 -181 -55 -383 94 -531
169 -168 484 -150 637 36 51 62 93 153 106 229 13 77 -4 191 -38 256 l-20 38
-1 -35 c-1 -72 -70 -140 -143 -140 -118 0 -190 111 -141 216 22 47 66 75 127
83 l51 6 -60 32 c-65 35 -167 63 -224 62 -19 0 -69 -10 -110 -23z"/>
<path d="M1864 3363 c10 -18 -4 -39 -14 -23 -5 7 -7 2 -7 -14 0 -33 9 -33 25
1 9 20 9 30 1 37 -9 8 -10 7 -5 -1z"/>
<path d="M1760 3285 c0 -7 5 -17 10 -20 12 -8 13 -25 1 -25 -5 0 -11 9 -14 20
-4 15 -14 20 -41 20 -25 0 -36 -4 -36 -15 0 -8 -8 -16 -17 -16 -10 -1 -67 -5
-128 -9 -102 -6 -96 -7 86 -8 180 -2 197 -1 201 16 3 12 -5 22 -29 34 -27 15
-33 15 -33 3z"/>
<path d="M630 2896 c-14 -7 -24 -18 -22 -25 1 -7 -2 -10 -7 -6 -16 9 -41 -50
-41 -96 0 -36 6 -48 40 -81 l41 -38 488 0 c480 0 489 0 515 21 74 58 74 160 0
218 -27 21 -34 21 -508 21 -374 -1 -487 -4 -506 -14z"/>
<path d="M860 2312 c-23 -11 -43 -32 -58 -64 -20 -40 -22 -51 -12 -86 11 -42
55 -88 93 -97 12 -3 215 -4 450 -3 l429 3 33 37 c62 68 52 153 -25 206 -33 22
-34 22 -454 22 -381 0 -424 -2 -456 -18z"/>
</g>
</svg>
